# xmcd CD database file
#
# Track frame offsets:
#	150
#	18308
#	35388
#	53322
#	75161
#	93437
#	112633
#	130261
#	149888
#	167196
#	183808
#	202931
#
# Disc length: 3259 seconds
#
# Revision: 2
# Processed by: cddbd v1.4b41PL1 Copyright (c) Steve Scherf et al.
# Submitted via: Feurio! 1.52 - http://www.feurio.com
#
DISCID=8a0cb90c
DTITLE=DJ Bobo - Planet Colors
DYEAR=1900
DGENRE=
TTITLE0=D.J. Bobo - Let The Party Begin
TTITLE1=D.J. Bobo - What A Feeling
TTITLE2=D.J. Bobo - Hard To Say I´m Sorry
TTITLE3=D.J. Bobo - Man in the Mirror
TTITLE4=D.J. Bobo - Colors Of Life
TTITLE5=D.J. Bobo - Moscow
TTITLE6=D.J. Bobo - Say It Again
TTITLE7=D.J. Bobo - Top Of The World
TTITLE8=D.J. Bobo - Way To Your Heart
TTITLE9=D.J. Bobo - Tell Me Why
TTITLE10=D.J. Bobo - Dreaming Of You
TTITLE11=D.J. Bobo - Time To Turn Off The Light (Bonus Track)
EXTD=
EXTT0=(c) MaKueh Records
EXTT1=(c) MaKueh Records
EXTT2=(c) MaKueh Records
EXTT3=(c) MaKueh Records
EXTT4=(c) MaKueh Records
EXTT5=(c) MaKueh Records
EXTT6=(c) MaKueh Records
EXTT7=(c) MaKueh Records
EXTT8=(c) MaKueh Records
EXTT9=(c) MaKueh Records
EXTT10=(c) MaKueh Records
EXTT11=(c) MaKueh Records
PLAYORDER=
